# AST/ASF file generated using VICON BodyLanguage
# -----------------------------------------------
:version 1.10
:name VICON
:units
  mass 1.0
  length 0.45
  angle deg
:documentation
   .ast/.asf automatically generated from VICON data using
   VICON BodyBuilder and BodyLanguage model FoxedUp or BRILLIANT.MOD
:root
   order TX TY TZ RX RY RZ
   axis XYZ
   position 0 0 0  
   orientation 0 0 0 
:bonedata
  begin
     id 1 
     name lhipjoint
     direction 0.603808 -0.713975 0.35448 
     length 2.2025 
     axis 0 0 0  XYZ
  end
  begin
     id 2 
     name lfemur
     direction 0.34202 -0.939693 0  
     length 6.55877  
     axis 0 0 20  XYZ
    dof rx ry rz
    limits (-160.0 20.0)
           (-70.0 70.0)
           (-60.0 70.0)
  end
  begin
     id 3 
     name ltibia
     direction 0.34202 -0.939693 0   
     length 6.80302   
     axis 0 0 20   XYZ
    dof rx
    limits (-10.0 170.0)
  end
  begin
     id 4 
     name lfoot
     direction 0.091848 -0.25235 0.963267   
     length 2.03446   
     axis -90 7.62852e-016 20   XYZ
    dof rx rz
    limits (-45.0 90.0)
           (-70.0 20.0)
  end
  begin
     id 5 
     name ltoes
     direction 1.53608e-011 -4.21925e-011 1   
     length 1.02033   
     axis -90 7.62852e-016 20   XYZ
    dof rx
    limits (-90.0 20.0)
  end
  begin
     id 6 
     name rhipjoint
     direction -0.587285 -0.724947 0.359928   
     length 2.16916  
     axis 0 0 0  XYZ 
  end
  begin
     id 7 
     name rfemur
     direction -0.34202 -0.939693 0   
     length 6.43173   
     axis 0 0 -20   XYZ
    dof rx ry rz
    limits (-160.0 20.0)
           (-70.0 70.0)
           (-70.0 60.0)
  end
  begin
     id 8 
     name rtibia
     direction -0.34202 -0.939693 0   
     length 6.70662   
     axis 0 0 -20   XYZ
    dof rx
    limits (-10.0 170.0)
 end
 begin
     id 9 
     name rfoot
     direction -0.11854 -0.325686 0.938018   
     length 2.0773  
     axis -90 -7.62852e-016 -20   XYZ
    dof rx rz
    limits (-45.0 90.0)
           (-20.0 70.0)
  end
  begin
     id 10 
     name rtoes
     direction -1.53547e-011 -4.21838e-011 1   
     length 1.03267   
     axis -90 -7.62852e-016 -20   XYZ
    dof rx
    limits (-90.0 20.0)
  end
  begin
     id 11 
     name lowerback
     direction -0.0286554 0.999539 0.0100613   
     length 2.08751   
     axis 0 0 0   XYZ
    dof rx ry rz
    limits (-20.0 45.0)
           (-30.0 30.0)
           (-30.0 30.0)
  end
  begin
     id 12 
     name upperback
     direction 0.0227093 0.999705 -0.00860929   
     length 2.08517   
     axis 0 0 0   XYZ
    dof rx ry rz
    limits (-20.0 45.0)
           (-30.0 30.0)
           (-30.0 30.0)
  end
  begin
     id 13 
     name thorax
     direction 0.0351627 0.999285 -0.013892   
     length 2.08412   
     axis 0 0 0   XYZ
    dof rx ry rz
    limits (-20.0 45.0)
           (-30.0 30.0)
           (-30.0 30.0)
  end
  begin
     id 14 
     name lowerneck
     direction -0.0696283 0.997344 0.0213922   
     length 1.44164   
     axis 0 0 0   XYZ
    dof rx ry rz
    limits (-20.0 45.0)
           (-30.0 30.0)
           (-30.0 30.0)
  end
  begin
     id 15 
     name upperneck
     direction 0.0531 0.990412 -0.127531   
     length 1.45022   
     axis 0 0 0   XYZ
    dof rx ry rz
    limits (-20.0 45.0)
           (-30.0 30.0)
           (-30.0 30.0)
  end
  begin
     id 16
     name head
     direction 0.0188154 0.998548 -0.0504727  
     length 1.45845  
     axis 0 0 0   XYZ
    dof rx ry rz
    limits (-20.0 45.0)
           (-30.0 30.0)
           (-30.0 30.0)
  end
  begin
     id 17 
     name lclavicle
     direction 0.961559 0.260051 0.088188  
     length 2.86057  
     axis 0 0 0   XYZ
    dof ry rz
    limits (-20.0 10.0)
           (0.0 20.0)
  end
  begin
     id 18 
     name lhumerus
     direction 1 -4.48959e-011 2.88185e-027   
     length 4.36901   
     axis 180 -30 -90   XYZ
    dof rx ry rz
    limits (-60.0 90.0)
           (-90.0 90.0)
           (-90.0 90.0)
  end
  begin
     id 19
     name lradius
     direction 1 -4.48965e-011 -3.92618e-028   
     length 3.21737   
     axis 180 -30 -90   XYZ
    dof rx
    limits (-10.0 170.0)
  end
  begin
     id 20
     name lwrist
     direction 1 -4.49037e-011 2.57246e-027   
     length 1.60869   
     axis -1.61769e-015 90 90   XYZ
    dof ry
    limits (-180.0 0.0)
 end
  begin
     id 21 
     name lhand
     direction 1 -4.48807e-011 5.12958e-027   
     length 0.564313   
     axis -3.27988e-015 90 90   XYZ
    dof rx rz
    limits (-90.0 90.0)
           (-45.0 45.0)
  end
  begin
     id 22 
     name lfingers
     direction 1 -4.48879e-011 1.02687e-026   
     length 0.454963   
     axis -6.5598e-015 90 90   XYZ
    dof rx
    limits (0.0 90.0)
  end
  begin
     id 23
     name lthumb
     direction 0.707107 -6.3475e-011 0.707107   
     length 0.653239   
     axis -90 45 2.19363e-014   XYZ
    dof rx rz
    limits (-45.0 45.0)
           (-45.0 45.0)
  end
  begin
     id 24 
     name rclavicle
     direction -0.954677 0.253915 0.155304   
     length 3.11497  
     axis 0 0 0   XYZ 
    dof ry rz
    limits (-10.0 20.0)
           (-20.0 0.0)
  end
  begin
     id 25 
     name rhumerus
     direction -1 -4.48958e-011 -8.20169e-028  
     length 4.34118   
     axis 180 30 90   XYZ
    dof rx ry rz
    limits (-90.0 60.0)
           (-90.0 90.0)
           (-90.0 90.0)
  end
  begin
     id 26 
     name rradius
     direction -1 -4.48978e-011 1.5676e-027   
     length 3.09531   
     axis 180 30 90   XYZ
    dof rx
    limits (-10.0 170.0)
  end
  begin
     id 27 
     name rwrist
     direction -1 -4.49001e-011 2.57123e-027   
     length 1.54765   
     axis -1.61769e-015 -90 -90   XYZ
    dof ry
    limits (-180.0 0.0)
  end
  begin
     id 28
     name rhand
     direction -1 -4.48847e-011 5.13225e-027   
     length 0.597446   
     axis -3.27988e-015 -90 -90   XYZ
    dof rx rz
    limits (-90.0 90.0)
           (-45.0 45.0)
  end
  begin
     id 29
     name rfingers
     direction -1 -4.49094e-011 1.02974e-026   
     length 0.481677   
     axis -6.5598e-015 -90 -90   XYZ
    dof rx
    limits (0.0 90.0)
  end
  begin
     id 30
     name rthumb
     direction -0.707107 -6.34859e-011 0.707107   
     length 0.691594   
     axis -90 -45 -2.19363e-014   XYZ
    dof rx rz
    limits (-45.0 45.0)
           (-45.0 45.0)
  end
:hierarchy
  begin
    root lhipjoint rhipjoint lowerback
    lhipjoint lfemur
    lfemur ltibia
    ltibia lfoot
    lfoot ltoes
    rhipjoint rfemur
    rfemur rtibia
    rtibia rfoot
    rfoot rtoes
    lowerback upperback
    upperback thorax
    thorax lowerneck lclavicle rclavicle
    lowerneck upperneck
    upperneck head
    lclavicle lhumerus
    lhumerus lradius
    lradius lwrist
    lwrist lhand lthumb
    lhand lfingers
    rclavicle rhumerus
    rhumerus rradius
    rradius rwrist
    rwrist rhand rthumb
    rhand rfingers
  end

#!OML:ASF I:\Acrobat_Osman\acrobat\cartwheel_test 2\Patient 1\Session 1\acrobat.ASF
:FULLY-SPECIFIED
:DEGREES
33
root 9.9698 15.6557 13.5449 7.982 -1.03626 2.23032
lowerback -11.7628 -1.35628 -4.88966
upperback 0.139867 -1.23361 1.47731
thorax 6.90398 -0.800564 4.11467
lowerneck -14.9968 -16.802 -8.97368
upperneck 21.4242 -21.7146 1.58895
head 10.4326 -10.5605 -1.14937
rclavicle -2.33572e-015 6.36111e-015
rhumerus -33.3636 3.26907 -83.7922
rradius 30.4775
rwrist 0.255761
rhand -13.6582 21.3441
rfingers 7.12502
rthumb 12.4586 -8.26454
lclavicle -2.33572e-015 6.36111e-015
lhumerus -32.5988 -9.79235 88.3379
lradius 33.8283
lwrist 24.6975
lhand -13.5088 49.7509
lfingers 7.12502
lthumb 12.6027 79.3507
rfemur -17.3157 17.0718 17.8603
rtibia 35.1943
rfoot -32.886 -30.4352
rtoes 2.78845
lfemur -19.9089 -0.00611294 -20.7555
ltibia 39.3938
lfoot -22.2112 19.601
ltoes -10.6966
34
root 9.96294 15.6543 13.549 7.98004 -0.973061 2.16307
lowerback -11.6864 -1.36814 -4.83584
upperback 0.102573 -1.26023 1.46574
thorax 6.82216 -0.808596 4.06761
lowerneck -14.5002 -17.1555 -9.17002
upperneck 21.0889 -22.2924 1.98601
head 10.326 -10.8136 -1.03752
rclavicle -1.15295e-014 -3.57812e-015
rhumerus -33.4422 3.34276 -83.8477
rradius 30.5167
rwrist 0.141562
rhand -13.7129 21.473
rfingers 7.12502
rthumb 12.4059 -8.13886
lclavicle -1.15295e-014 -3.57812e-015
lhumerus -32.8224 -10.0146 88.3726
lradius 33.7566
lwrist 24.9323
lhand -14.0416 49.431
lfingers 7.12502
lthumb 12.089 79.0618
rfemur -17.3 17.3168 17.9859
rtibia 35.255
rfoot -33.0576 -30.6567
rtoes 2.84581
lfemur -19.8749 0.0978002 -20.6395
ltibia 39.3501
lfoot -22.1644 19.4341
ltoes -10.7205
35
root 9.95563 15.6416 13.5532 8.00611 -0.962245 2.10606
lowerback -11.6437 -1.36731 -4.80279
upperback 0.0612046 -1.26548 1.45442
thorax 6.75321 -0.80718 4.03626
lowerneck -13.999 -17.361 -9.1847
upperneck 20.6298 -22.6725 2.31054
head 10.1353 -10.9785 -0.927249
rclavicle -1.04362e-015 -1.98785e-015
rhumerus -33.5145 3.30723 -83.854
rradius 30.5539
rwrist 0.321617
rhand -13.6877 21.7862
rfingers 7.12502
rthumb 12.4302 -7.82423
lclavicle -1.04362e-015 -1.98785e-015
lhumerus -33.0142 -10.1906 88.4083
lradius 33.6458
lwrist 25.1031
lhand -14.5551 49.165
lfingers 7.12502
lthumb 11.5938 78.8242
rfemur -17.3561 17.6484 18.0892
rtibia 35.3491
rfoot -33.2615 -30.9244
rtoes 2.91256
lfemur -20.0862 0.270129 -20.5667
ltibia 39.2722
lfoot -21.1204 20.112
ltoes -14.5144
36
root 9.94929 15.6426 13.5596 8.0527 -0.959648 2.06413
lowerback -11.614 -1.36468 -4.79045
upperback -0.00696053 -1.26582 1.45209
thorax 6.66329 -0.803159 4.02714
lowerneck -13.3913 -17.4614 -9.18077
upperneck 20.117 -22.9138 2.64734
head 9.90164 -11.0845 -0.779598
rclavicle -4.69629e-015 -7.95139e-016
rhumerus -33.6189 3.21088 -83.8483
rradius 30.6311
rwrist 0.395997
rhand -13.7389 21.9758
rfingers 7.12502
rthumb 12.3809 -7.63761
lclavicle -4.69629e-015 -7.95139e-016
lhumerus -33.1813 -10.2093 88.418
lradius 33.5278
lwrist 24.9548
lhand -14.4506 49.1789
lfingers 7.12502
lthumb 11.6946 78.8325
rfemur -17.3955 17.8081 18.1655
rtibia 35.4088
rfoot -33.426 -31.029
rtoes 3.00751
lfemur -20.0982 0.193373 -20.49
ltibia 39.2302
lfoot -21.1682 20.1523
ltoes -14.3979
37
root 9.94443 15.6421 13.5671 8.10299 -0.982431 2.08336
lowerback -11.5795 -1.34551 -4.81559
upperback -0.0928033 -1.23851 1.43435
thorax 6.54941 -0.785561 4.02787
lowerneck -13.0283 -17.5346 -9.15681
upperneck 19.89 -23.0871 2.84618
head 9.79025 -11.159 -0.703764
rclavicle 6.85807e-015 -2.22639e-014
rhumerus -33.7283 3.18095 -83.8729
rradius 30.7113
rwrist 0.206038
rhand -13.7502 21.884
rfingers 7.12502
rthumb 12.37 -7.73004
lclavicle 6.85807e-015 -2.22639e-014
lhumerus -33.3954 -10.2768 88.4566
lradius 33.462
lwrist 24.7552
lhand -14.1987 49.1138
lfingers 7.12502
lthumb 11.9375 78.7535
rfemur -17.4657 17.6897 18.1514
rtibia 35.4862
rfoot -33.4504 -30.8914
rtoes 3.04045
lfemur -20.0885 0.169154 -20.498
ltibia 39.1659
lfoot -21.1342 20.2292
ltoes -14.5731
38
root 9.94101 15.6416 13.5744 8.15404 -1.0211 2.14266
lowerback -11.5987 -1.31606 -4.84839
upperback -0.125376 -1.19218 1.4013
thorax 6.52044 -0.761869 4.01935
lowerneck -12.8801 -17.6222 -9.10627
upperneck 19.7236 -23.2591 3.0016
head 9.72927 -11.2274 -0.667068
rclavicle 1.62755e-014 -1.98785e-015
rhumerus -33.7344 3.13005 -83.901
rradius 30.7191
rwrist 0.0633978
rhand -13.7866 21.8892
rfingers 7.12502
rthumb 12.3348 -7.72696
lclavicle 1.62755e-014 -1.98785e-015
lhumerus -33.5278 -10.4283 88.5063
lradius 33.4827
lwrist 24.6949
lhand -14.1733 48.9866
lfingers 7.12502
lthumb 11.962 78.6248
rfemur -17.5336 17.4329 18.0787
rtibia 35.5084
rfoot -33.282 -30.7234
rtoes 2.8184
lfemur -20.0812 0.136611 -20.5533
ltibia 39.1444
lfoot -21.1821 20.2553
ltoes -14.4006
39
root 9.93771 15.6397 13.5823 8.17799 -1.04549 2.18374
lowerback -11.6549 -1.29327 -4.86175
upperback -0.107173 -1.15498 1.37117
thorax 6.56716 -0.745091 4.0009
lowerneck -12.7622 -17.6826 -9.05464
upperneck 19.4938 -23.3908 3.19112
head 9.65363 -11.2745 -0.613181
rclavicle 7.25564e-015 -5.56597e-015
rhumerus -33.6981 2.90638 -83.9003
rradius 30.7001
rwrist 0.101905
rhand -13.9416 22.0124
rfingers 7.12502
rthumb 12.1854 -7.61263
lclavicle 7.25564e-015 -5.56597e-015
lhumerus -33.5455 -10.5066 88.5154
lradius 33.4096
lwrist 24.6327
lhand -14.217 48.9173
lfingers 7.12502
lthumb 11.9199 78.558
rfemur -17.5459 17.3541 18.0471
rtibia 35.5478
rfoot -33.2851 -30.6273
rtoes 2.90407
lfemur -20.0368 0.129805 -20.5851
ltibia 39.1071
lfoot -21.2038 20.2535
ltoes -14.2855
40
root 9.93597 15.6398 13.5904 8.19071 -1.06839 2.20788
lowerback -11.7188 -1.26247 -4.8221
upperback -0.0671672 -1.11239 1.32356
thorax 6.63936 -0.724743 3.93457
lowerneck -12.7088 -17.7171 -8.95239
upperneck 19.297 -23.4783 3.32196
head 9.58445 -11.3019 -0.582861
rclavicle 9.0944e-015 1.98785e-015
rhumerus -33.6236 2.61983 -83.9219
rradius 30.658
rwrist 0.199983
rhand -14.0254 21.9194
rfingers 7.12502
rthumb 12.1046 -7.71048
lclavicle 9.0944e-015 1.98785e-015
lhumerus -33.4609 -10.4121 88.3751
lradius 33.371
lwrist 23.7739
lhand -13.1814 49.6379
lfingers 7.12502
lthumb 12.9183 79.218
rfemur -17.5215 17.379 18.0292
rtibia 35.5788
rfoot -33.3997 -30.5617
rtoes 3.18674
lfemur -19.9987 0.162879 -20.6107
ltibia 39.0769
lfoot -21.1819 20.2718
ltoes -14.4029
41
root 9.9366 15.641 13.5978 8.26304 -1.08367 2.22364
lowerback -11.8166 -1.22196 -4.70368
upperback -0.0616824 -1.06417 1.24104
thorax 6.69101 -0.697082 3.78722
lowerneck -12.5991 -17.72 -8.70274
upperneck 19.0376 -23.5224 3.33773
head 9.44722 -11.3174 -0.585889
rclavicle -3.00662e-015 -1.82882e-014
rhumerus -33.5866 2.37153 -84.0078
rradius 30.6249
rwrist 0.218315
rhand -13.9833 21.8199
rfingers 7.12502
rthumb 12.1453 -7.80752
lclavicle -3.00662e-015 -1.82882e-014
lhumerus -33.438 -10.5104 88.2563
lradius 33.4943
lwrist 22.8967
lhand -11.9766 50.6629
lfingers 7.12502
lthumb 14.0796 80.1659
rfemur -17.5802 17.2375 17.9829
rtibia 35.5918
rfoot -33.3033 -30.4885
rtoes 2.99923
lfemur -20.0419 0.154382 -20.6427
ltibia 39.0635
lfoot -21.1604 20.3384
ltoes -14.5235
42
root 9.93641 15.6416 13.6076 8.34422 -1.08072 2.21946
lowerback -11.9162 -1.18708 -4.57665
upperback -0.100691 -1.02617 1.16945
thorax 6.69749 -0.6723 3.64503
lowerneck -12.3826 -17.6903 -8.42782
upperneck 18.7546 -23.5241 3.31925
head 9.27382 -11.3203 -0.583356
rclavicle -1.799e-014 7.95139e-016
rhumerus -33.673 2.13459 -84.0837
rradius 30.6365
rwrist 0.257118
rhand -13.9077 21.8749
rfingers 7.12502
rthumb 12.2181 -7.74829
lclavicle -1.799e-014 7.95139e-016
lhumerus -33.5955 -11.0543 88.4203
lradius 33.5362
lwrist 23.4509
lhand -12.6193 50.6989
lfingers 7.12502
lthumb 13.4602 80.244
rfemur -17.6436 16.9735 17.9725
rtibia 35.5909
rfoot -33.0313 -30.3847
rtoes 2.50917
lfemur -20.0874 0.0496385 -20.6444
ltibia 39.0626
lfoot -21.1917 20.4317
ltoes -14.4389
43
root 9.93297 15.6412 13.6195 8.35565 -1.0748 2.22635
lowerback -11.9234 -1.14739 -4.51862
upperback -0.152771 -0.978285 1.11813
thorax 6.63907 -0.643618 3.56606
lowerneck -12.2737 -17.6859 -8.32829
upperneck 18.7205 -23.5535 3.35461
head 9.23714 -11.3296 -0.575521
rclavicle -8.79622e-015 3.97569e-016
rhumerus -33.8265 1.96081 -84.1288
rradius 30.6432
rwrist 0.32047
rhand -13.8447 21.8465
rfingers 7.12502
rthumb 12.2789 -7.77298
lclavicle -8.79622e-015 3.97569e-016
lhumerus -33.7733 -11.5769 88.6422
lradius 33.5117
lwrist 24.2116
lhand -13.5648 50.4673
lfingers 7.12502
lthumb 12.5487 80.0704
rfemur -17.5997 16.9089 17.9987
rtibia 35.5768
rfoot -32.9705 -30.3114
rtoes 2.48996
lfemur -20.0615 0.00233255 -20.6363
ltibia 39.0731
lfoot -21.271 20.4258
ltoes -14.2008
44
root 9.92829 15.6399 13.6306 8.34179 -1.06973 2.22326
lowerback -11.838 -1.09298 -4.45588
upperback -0.226296 -0.916172 1.06741
thorax 6.50434 -0.605752 3.48813
lowerneck -12.3293 -17.7019 -8.28301
upperneck 18.9002 -23.6023 3.36521
head 9.30795 -11.3415 -0.599927
rclavicle -1.51076e-014 1.59028e-015
rhumerus -34.0135 1.90943 -84.1992
rradius 30.658
rwrist 0.261605
rhand -13.7829 21.6747
rfingers 7.12502
rthumb 12.3384 -7.94124
lclavicle -1.51076e-014 1.59028e-015
lhumerus -33.9386 -11.9507 88.7537
lradius 33.5961
lwrist 24.3984
lhand -13.6224 50.6733
lfingers 7.12502
lthumb 12.4932 80.2798
rfemur -17.5161 17.0443 18.0399
rtibia 35.5598
rfoot -33.1908 -30.2418
rtoes 3.10733
lfemur -20.0173 0.0834796 -20.609
ltibia 39.0872
lfoot -21.3372 20.3293
ltoes -14.1119
45
root 9.92435 15.6384 13.6405 8.31841 -1.04394 2.17471
lowerback -11.7573 -1.18333 -4.36631
upperback -0.374492 -1.06248 1.19033
thorax 6.31581 -0.669609 3.54315
lowerneck -12.0232 -17.5789 -8.74827
upperneck 18.9639 -23.3904 3.44877
head 9.33526 -11.2705 -0.469244
rclavicle 3.18055e-015 -3.57812e-015
rhumerus -34.3162 2.49274 -84.2289
rradius 30.6844
rwrist 0.055865
rhand -13.8615 21.6373
rfingers 7.12502
rthumb 12.2627 -7.98317
lclavicle 3.18055e-015 -3.57812e-015
lhumerus -34.3202 -11.7129 88.9525
lradius 33.7118
lwrist 24.5077
lhand -13.6667 50.6385
lfingers 7.12502
lthumb 12.4505 80.2476
rfemur -17.4243 17.1371 18.1323
rtibia 35.5567
rfoot -33.3528 -30.2447
rtoes 3.39879
lfemur -19.9555 0.0371762 -20.5331
ltibia 39.0909
lfoot -21.3764 20.3696
ltoes -14.2049
46
root 9.9195 15.6378 13.6513 8.33399 -0.947114 2.20696
lowerback -11.7885 -1.31809 -4.39417
upperback -0.482434 -1.24506 1.29889
thorax 6.2393 -0.757885 3.64263
lowerneck -11.6523 -17.4358 -9.08088
upperneck 18.8486 -23.1564 3.48771
head 9.26393 -11.1934 -0.3457
rclavicle 1.963e-015 3.18055e-015
rhumerus -34.5444 2.89027 -84.222
rradius 30.6671
rwrist 0.0160212
rhand -13.982 21.8165
rfingers 7.12502
rthumb 12.1465 -7.81085
lclavicle 1.963e-015 3.18055e-015
lhumerus -34.542 -11.4036 89.13
lradius 33.6869
lwrist 24.7097
lhand -14.0424 50.1078
lfingers 7.12502
lthumb 12.0882 79.7387
rfemur -17.3694 17.3127 18.1427
rtibia 35.573
rfoot -33.585 -30.4111
rtoes 3.50312
lfemur -19.9451 -0.078407 -20.5383
ltibia 39.0764
lfoot -21.3037 20.448
ltoes -14.5945
